# xmcd
# 
# Track frame offsets:
#     150
#     6989
#     22021
#     37158
#     54139
#     72991
#     90152
#     107576
#     121128
#     138815
#     156106
# 
# Disc length: 2267
# 
# Revision: 2
# Processed by: cddbd v1.5.2PL0 Copyright (c) Steve Scherf et al.
# Submitted via: fre:ac v1.1beta1pre5
# 
DISCID=8208d90b
DTITLE=Leela James - Loving You More: in the Spirit of Etta James
DYEAR=2012
DGENRE=Soul
TTITLE0=Soul Will Never Die
TTITLE1=Something's Got A Hold On Me
TTITLE2=It Hurts Me So Much
TTITLE3=I'm Loving You More Every Day
TTITLE4=I'd Rather Go Blind
TTITLE5=I Want To Ta-Ta You Baby
TTITLE6=Damn Your Eyes
TTITLE7=Nobody Loves You Like Me
TTITLE8=Old School Kind Of Love
TTITLE9=Sunday Kind Of Love
TTITLE10=At Last
EXTD=In the spirit of Etta James
EXTT0=
EXTT1=
EXTT2=
EXTT3=
EXTT4=
EXTT5=
EXTT6=
EXTT7=
EXTT8=
EXTT9=
EXTT10=
PLAYORDER=
